<svg width="24" height="22" viewBox="0 0 24 22" fill="none" xmlns="http://www.w3.org/2000/svg">
<g clip-path="url(#clip0_5751_125621)">
<path d="M8.75097 21.9013C8.25327 21.9464 7.75201 21.8699 7.29097 21.6785C6.82992 21.487 6.42312 21.1864 6.10611 20.803C5.84928 20.4986 5.65767 20.1454 5.54298 19.7651C5.42828 19.3847 5.39291 18.9851 5.43903 18.5908V14.2599C5.43903 12.9201 5.14079 12.6163 3.86937 12.6163H1.63261C1.22024 12.5879 0.834074 12.4052 0.552088 12.1052C0.270102 11.8052 0.113281 11.4102 0.113281 11C0.113281 10.5897 0.270102 10.1947 0.552088 9.89473C0.834074 9.59474 1.22024 9.4121 1.63261 9.38367H3.86937C5.14864 9.38367 5.43903 9.07209 5.43903 7.7401V3.40918C5.39103 3.01473 5.42549 2.61471 5.54027 2.23408C5.65505 1.85346 5.84767 1.5004 6.10611 1.19698C6.4214 0.811046 6.8277 0.508208 7.28903 0.315277C7.75036 0.122347 8.25248 0.0452765 8.75097 0.090887H12.5025C12.7258 0.0754876 12.95 0.10586 13.161 0.180113C13.3721 0.254366 13.5654 0.37091 13.7292 0.522505C13.8929 0.6741 14.0234 0.857503 14.1127 1.06131C14.202 1.26511 14.248 1.48496 14.248 1.70719C14.248 1.92942 14.202 2.14927 14.1127 2.35307C14.0234 2.55688 13.8929 2.74028 13.7292 2.89188C13.5654 3.04347 13.3721 3.16001 13.161 3.23427C12.95 3.30852 12.7258 3.33889 12.5025 3.32349H8.69605V7.99715C8.76283 9.01352 8.45922 10.0198 7.8406 10.8325L7.68362 11.0272L7.83274 11.222C8.43281 12.0442 8.73687 13.0428 8.69605 14.0573V18.692H12.5025C12.7258 18.6766 12.95 18.707 13.161 18.7813C13.3721 18.8555 13.5654 18.9721 13.7292 19.1237C13.8929 19.2753 14.0234 19.4587 14.1127 19.6625C14.202 19.8663 14.248 20.0861 14.248 20.3083C14.248 20.5306 14.202 20.7504 14.1127 20.9542C14.0234 21.158 13.8929 21.3414 13.7292 21.493C13.5654 21.6446 13.3721 21.7612 13.161 21.8354C12.95 21.9097 12.7258 21.94 12.5025 21.9246H8.75097V21.9013Z" fill="#AAE045"/>
<path d="M18.067 21.9013C17.8562 21.9015 17.6475 21.8594 17.4534 21.7777C17.2593 21.6961 17.0837 21.5764 16.9372 21.4259C16.7907 21.2754 16.6763 21.0972 16.6007 20.9018C16.5251 20.7065 16.49 20.498 16.4974 20.2889C16.55 19.8228 16.7475 19.3845 17.0625 19.0348L17.1723 18.8868L20.0762 15.07C20.3406 14.8169 20.5394 14.5041 20.6556 14.1582C20.7718 13.8123 20.8019 13.4436 20.7433 13.0837V8.91635C20.8019 8.55641 20.7718 8.18775 20.6556 7.84186C20.5394 7.49597 20.3406 7.18312 20.0762 6.93005L17.0703 3.03534C16.7396 2.68272 16.5379 2.23011 16.4974 1.75008C16.489 1.54483 16.5216 1.33995 16.5933 1.14724C16.665 0.954533 16.7743 0.777803 16.9151 0.627217C17.0559 0.476631 17.2253 0.355166 17.4136 0.269813C17.6018 0.184461 17.8052 0.136903 18.0121 0.129883C18.3429 0.141534 18.665 0.238077 18.9469 0.410089C19.2289 0.5821 19.4611 0.823704 19.621 1.11135L22.3522 4.43743C22.9234 5.03907 23.3648 5.75006 23.6496 6.52688C23.9343 7.30371 24.0563 8.13005 24.0082 8.9553V13.1149C24.0563 13.9401 23.9343 14.7664 23.6496 15.5433C23.3648 16.3201 22.9234 17.0311 22.3522 17.6327L19.5582 21.0445C19.4003 21.2984 19.1814 21.5095 18.9212 21.659C18.661 21.8086 18.3675 21.8918 18.067 21.9013Z" fill="#AAE045"/>
</g>
<defs>
<clipPath id="clip0_5751_125621">
<rect width="24" height="21.8182" fill="white" transform="translate(0 0.0908203)"/>
</clipPath>
</defs>
</svg>
